# xmcd
#
# Track frame offsets: 
#        150
#        14580
#        34667
#        55575
#        73155
#        92265
#        109317
#        130767
#        150910
#        173232
#        191132
#        215607
#        235612
#        255542
#        277607
#
# Disc length: 4129 seconds
#
# Revision: 0
# Processed by: cddbd v1.5.2PL0 Copyright (c) Steve Scherf et al.
# Submitted via: ExactAudioCopyFreeDBPlugin 1.0
#
DISCID=c0101f0f
DTITLE=Anthony David - 3 Chords and The Truth
DYEAR=1900
DGENRE=Blues
TTITLE0=Ain't Enough For Me
TTITLE1=Believe Me
TTITLE2=Heartstrings
TTITLE3=50 - 50 Love
TTITLE4=Yes
TTITLE5=Skyline
TTITLE6=Cheatin' Man
TTITLE7=GA Peach
TTITLE8=Cold Turkey
TTITLE9=Part Of My Life
TTITLE10=Krooked Kop
TTITLE11=Spittin' Game
TTITLE12=The Water - The Fire
TTITLE13=GA Peach (Remix)
TTITLE14=50 - 50 Love (Jiva Remix)
EXTD=
EXTT0=
EXTT1=
EXTT2=
EXTT3=
EXTT4=
EXTT5=
EXTT6=
EXTT7=
EXTT8=
EXTT9=
EXTT10=
EXTT11=
EXTT12=
EXTT13=
EXTT14=
PLAYORDER=
